# This file uses centimeters as units for non-parametric coordinates.

mtllib meat.mtl
g default
v -0.379268 -0.155646 2.508559
v -0.376460 0.056106 2.508962
v -0.376115 -0.146082 2.001821
v -0.373307 0.065671 2.002224
v 0.145832 -0.162548 2.476668
v 0.149109 0.084606 2.477138
v 0.113956 -0.161126 1.951524
v 0.116764 0.050626 1.951927
v -0.463780 -0.181545 2.250096
v -0.460243 0.085220 2.250604
v 0.197741 -0.190240 2.209919
v 0.201278 0.076525 2.210427
v -0.153429 -0.157459 1.887810
v -0.150621 0.054293 1.888213
v -0.111883 -0.159313 2.572270
v -0.109075 0.052439 2.572673
v -0.129482 0.080873 2.230519
v -0.133019 -0.185893 2.230011
vt 0.018751 0.062392
vt 0.128147 0.064004
vt 0.119771 0.107332
vt 0.032934 0.106053
vt 0.028783 0.147311
vt 0.115619 0.148590
vt 0.114951 0.193963
vt 0.028115 0.192684
vt 0.016174 0.237380
vt 0.125570 0.238991
vt 0.128147 0.283895
vt 0.026793 0.282403
vt 0.026125 0.327775
vt 0.112961 0.329054
vt 0.112293 0.374426
vt 0.025457 0.373147
vt 0.243833 0.294028
vt 0.154066 0.320260
vt 0.150957 0.241467
vt 0.215877 0.199426
vt 0.241058 0.104650
vt 0.150957 0.079121
vt 0.190024 0.010784
vt 0.267211 0.009403
vt 0.213199 0.199426
vt 0.159429 0.153750
vt 0.271216 0.388812
vt 0.193873 0.388339
vt 0.030692 0.017702
vt 0.117528 0.018981
vt 0.326865 0.345239
vt 0.333440 0.267252
vt 0.290400 0.199426
vt 0.330687 0.131790
vt 0.334018 0.055328
vt 0.293221 0.199426
vn -0.943450 0.013141 -0.331253
vn -0.943451 0.013141 -0.331253
vn -0.943450 0.013141 -0.331253
vn -0.943450 0.013141 -0.331253
vn 0.231780 -0.001223 -0.972767
vn 0.231780 -0.001223 -0.972767
vn 0.231780 -0.001223 -0.972767
vn 0.231780 -0.001223 -0.972767
vn 0.981238 -0.013376 0.192336
vn 0.981238 -0.013376 0.192336
vn 0.981238 -0.013376 0.192336
vn 0.981238 -0.013376 0.192336
vn -0.231770 0.001222 0.972770
vn -0.231770 0.001222 0.972770
vn -0.231770 0.001222 0.972770
vn -0.231770 0.001222 0.972770
vn 0.004664 -0.996021 0.088997
vn 0.004664 -0.996021 0.088997
vn 0.004664 -0.996021 0.088997
vn 0.004664 -0.996021 0.088997
vn 0.006462 0.995525 0.094282
vn 0.006462 0.995525 0.094282
vn 0.006462 0.995525 0.094282
vn 0.006462 0.995525 0.094282
vn 0.009725 0.997001 -0.076776
vn 0.009725 0.997001 -0.076776
vn 0.009725 0.997001 -0.076776
vn 0.009725 0.997001 -0.076776
vn -0.006463 -0.995526 -0.094268
vn -0.006463 -0.995526 -0.094268
vn -0.006463 -0.995526 -0.094268
vn -0.006463 -0.995526 -0.094268
vn 0.950777 -0.012018 -0.309644
vn 0.950777 -0.012018 -0.309644
vn 0.950777 -0.012018 -0.309644
vn 0.950777 -0.012018 -0.309644
vn -0.950766 0.012018 0.309677
vn -0.950766 0.012018 0.309677
vn -0.950766 0.012018 0.309677
vn -0.950766 0.012018 0.309677
vn -0.055730 -0.991952 -0.113689
vn -0.055730 -0.991952 -0.113690
vn -0.055730 -0.991952 -0.113689
vn -0.055730 -0.991952 -0.113690
vn 0.019941 0.995699 -0.090479
vn 0.019941 0.995699 -0.090479
vn 0.019941 0.995699 -0.090478
vn 0.019941 0.995699 -0.090478
vn -0.041039 0.998669 0.031242
vn -0.041039 0.998669 0.031242
vn -0.041039 0.998669 0.031242
vn -0.041039 0.998669 0.031242
vn -0.019942 -0.995698 0.090491
vn -0.019942 -0.995698 0.090491
vn -0.019942 -0.995698 0.090491
vn -0.019942 -0.995698 0.090491
vn 0.347724 -0.006395 0.937575
vn 0.347724 -0.006395 0.937575
vn 0.347724 -0.006395 0.937575
vn 0.347724 -0.006395 0.937575
vn -0.455398 0.007733 -0.890254
vn -0.455398 0.007733 -0.890254
vn -0.455398 0.007733 -0.890254
vn -0.455398 0.007733 -0.890254
s off
usemtl initialShadingGroup
f 9/1/1 10/2/2 4/3/3 3/4/4
f 13/5/5 14/6/6 8/7/7 7/8/8
f 11/9/9 12/10/10 6/11/11 5/12/12
f 15/13/13 16/14/14 2/15/15 1/16/16
f 18/17/17 11/18/18 5/19/19 15/20/20
f 17/21/21 10/22/22 2/23/23 16/24/24
f 14/25/25 4/26/26 10/22/27 17/21/28
f 13/27/29 7/28/30 11/18/31 18/17/32
f 7/8/33 8/7/34 12/10/35 11/9/36
f 1/29/37 2/30/38 10/2/39 9/1/40
f 3/31/41 13/27/42 18/17/43 9/32/44
f 8/33/45 14/25/46 17/21/47 12/34/48
f 12/34/49 17/21/50 16/24/51 6/35/52
f 9/32/53 18/17/54 15/20/55 1/36/56
f 5/12/57 6/11/58 16/14/59 15/13/60
f 3/4/61 4/3/62 14/6/63 13/5/64
